<svg viewBox="0 0 21 19" fill="none" xmlns="http://www.w3.org/2000/svg">
<path d="M13.2766 2.10285L19.9776 13.2638C20.9406 14.8668 20.4676 16.9758 18.9206 17.9738C18.4013 18.31 17.7961 18.4892 17.1776 18.4898H3.77456C1.95356 18.4898 0.476562 16.9598 0.476562 15.0708C0.476562 14.4318 0.649562 13.8068 0.974562 13.2638L7.67656 2.10285C8.63856 0.499848 10.6726 0.00884855 12.2196 1.00685C12.6476 1.28285 13.0096 1.65785 13.2766 2.10285ZM11.0566 2.94185C10.9341 2.86311 10.797 2.80999 10.6535 2.78573C10.51 2.76146 10.363 2.76653 10.2215 2.80065C10.08 2.83476 9.9469 2.89721 9.8302 2.98421C9.7135 3.07121 9.61565 3.18097 9.54256 3.30685L2.84156 14.4698C2.73271 14.6518 2.67533 14.8598 2.67556 15.0718C2.67556 15.7018 3.16756 16.2118 3.77556 16.2118H17.1766C17.3826 16.2118 17.5836 16.1518 17.7576 16.0398C18.0072 15.874 18.1833 15.6181 18.2491 15.3257C18.3148 15.0332 18.2652 14.7266 18.1106 14.4698L11.4096 3.30685C11.3217 3.15987 11.2013 3.035 11.0576 2.94185H11.0566ZM10.4766 14.4898C10.2113 14.4898 9.95699 14.3845 9.76946 14.197C9.58192 14.0094 9.47656 13.7551 9.47656 13.4898C9.47656 13.2246 9.58192 12.9703 9.76946 12.7827C9.95699 12.5952 10.2113 12.4898 10.4766 12.4898C10.7418 12.4898 10.9961 12.5952 11.1837 12.7827C11.3712 12.9703 11.4766 13.2246 11.4766 13.4898C11.4766 13.7551 11.3712 14.0094 11.1837 14.197C10.9961 14.3845 10.7418 14.4898 10.4766 14.4898ZM10.4766 5.48985C10.7418 5.48985 10.9961 5.59521 11.1837 5.78274C11.3712 5.97028 11.4766 6.22463 11.4766 6.48985V10.4898C11.4766 10.7551 11.3712 11.0094 11.1837 11.197C10.9961 11.3845 10.7418 11.4898 10.4766 11.4898C10.2113 11.4898 9.95699 11.3845 9.76946 11.197C9.58192 11.0094 9.47656 10.7551 9.47656 10.4898V6.48985C9.47656 6.22463 9.58192 5.97028 9.76946 5.78274C9.95699 5.59521 10.2113 5.48985 10.4766 5.48985Z" fill="#FF8484"/>
</svg>
