<svg viewBox="0 0 201 41" fill="none" xmlns="http://www.w3.org/2000/svg">
<path d="M6.60704 5.0248C6.00511 4.82415 5.40319 4.72383 4.90158 4.72383C4.09901 4.72383 3.49708 4.92447 2.99548 5.32576C2.49387 5.72704 2.29323 6.22865 2.29323 6.9309C2.29323 7.33218 2.39355 7.63315 2.49387 7.93411C2.69451 8.23507 2.89516 8.43572 3.19612 8.73668C3.49708 8.93732 3.79805 9.13796 4.09901 9.33861C4.50029 9.33861 4.90158 9.53925 5.20254 9.73989C5.60383 9.94053 6.00511 10.1412 6.4064 10.3418C6.80768 10.5425 7.10865 10.7431 7.40961 11.0441C7.71057 11.345 8.01154 11.646 8.11186 11.947C8.3125 12.3482 8.41282 12.7495 8.41282 13.2511C8.41282 14.455 8.01154 15.3579 7.20897 15.9598C6.4064 16.5617 5.30286 16.8627 3.79805 16.8627C2.89516 16.8627 1.79162 16.6621 0.68809 16.3611L0.587769 16.2608L0.989053 13.2511L1.39034 13.1508L1.99226 15.6588C2.59419 15.8595 3.29644 16.0601 3.89837 16.0601C4.80126 16.0601 5.50351 15.8595 5.90479 15.4582C6.4064 15.0569 6.60704 14.5553 6.60704 13.7527C6.60704 13.3515 6.50672 13.0505 6.4064 12.7495C6.4064 12.5489 6.20576 12.3482 5.90479 12.1476C5.60383 11.947 5.30286 11.7463 5.0019 11.5457C4.70094 11.345 4.29965 11.2447 3.89837 11.0441C3.49708 10.8434 3.0958 10.6428 2.69451 10.4421C2.29323 10.2415 1.99227 10.0409 1.59098 9.73989C1.29002 9.43893 0.989053 9.13796 0.888732 8.73668C0.68809 8.33539 0.587769 7.83379 0.587769 7.33218C0.587769 6.22865 0.989053 5.42608 1.79162 4.82415C2.59419 4.22223 3.69773 3.92126 5.0019 3.92126C5.90479 3.92126 6.908 4.02158 7.91122 4.22223L8.01154 4.32255L7.50993 7.03122L7.10865 7.13154L6.60704 5.0248ZM16.1376 15.7592C15.2347 16.4614 14.3318 16.7624 13.4289 16.7624C12.526 16.7624 11.8237 16.5617 11.3221 16.0601C10.8205 15.5585 10.6199 14.9566 10.6199 14.0537V12.1476C10.6199 10.8434 10.6199 9.94053 10.6199 9.33861L9.41603 9.03764V8.73668C10.4192 8.53604 11.4225 8.33539 12.225 8.13475L12.3253 8.23507C12.3253 8.93732 12.225 9.84021 12.225 10.8434V13.6524C12.225 14.3547 12.4257 14.8563 12.7266 15.1572C13.0276 15.4582 13.5292 15.6588 14.1311 15.6588C14.7331 15.6588 15.335 15.4582 16.0372 15.1572V11.4454C16.0372 10.6428 16.0372 9.94053 16.0372 9.33861L14.8334 9.03764V8.73668C15.8366 8.53604 16.8398 8.33539 17.6424 8.13475L17.7427 8.23507C17.7427 8.93732 17.6424 9.84021 17.6424 10.9437C17.6424 13.0505 17.6424 14.3547 17.6424 14.8563C17.6424 15.0569 17.6424 15.2576 17.7427 15.4582C17.843 15.6588 17.843 15.7592 17.9433 15.7592C18.0437 15.8595 18.144 15.8595 18.3446 15.9598C18.5453 15.9598 18.7459 15.9598 19.0469 16.0601V16.3611C18.7459 16.4614 18.4449 16.5617 18.144 16.6621C17.7427 16.7624 17.542 16.7624 17.4417 16.7624C16.7395 16.7624 16.3382 16.4614 16.1376 15.7592ZM13.3286 5.0248C13.3286 5.32576 13.2282 5.5264 13.0276 5.72704C12.827 5.92769 12.6263 6.02801 12.3253 6.02801C12.0244 6.02801 11.8237 5.92769 11.6231 5.72704C11.4225 5.5264 11.3221 5.32576 11.3221 5.0248C11.3221 4.72383 11.4225 4.52319 11.6231 4.32255C11.8237 4.12191 12.0244 4.02158 12.3253 4.02158C12.6263 4.02158 12.827 4.1219 13.0276 4.22223C13.2282 4.52319 13.3286 4.72383 13.3286 5.0248ZM16.7395 5.0248C16.7395 5.32576 16.6392 5.5264 16.4385 5.72704C16.2379 5.92769 16.0372 6.02801 15.7363 6.02801C15.4353 6.02801 15.2347 5.92769 15.034 5.72704C14.8334 5.5264 14.7331 5.32576 14.7331 5.0248C14.7331 4.72383 14.8334 4.52319 15.034 4.32255C15.2347 4.12191 15.4353 4.02158 15.7363 4.02158C16.0372 4.02158 16.2379 4.1219 16.4385 4.22223C16.6392 4.52319 16.7395 4.72383 16.7395 5.0248ZM26.27 9.13796C25.8687 9.03764 25.4674 8.93732 24.9658 8.93732C23.9626 8.93732 23.16 9.23829 22.6584 9.84021C22.1568 10.4421 21.8559 11.2447 21.8559 12.4486C21.8559 13.4518 22.0565 14.2543 22.5581 14.8563C23.0597 15.4582 23.6616 15.7592 24.5645 15.7592C25.1665 15.7592 25.6681 15.5585 26.27 15.2576V9.13796ZM24.9658 3.92126C25.969 3.72062 26.9722 3.51998 27.8751 3.31934L27.9755 3.41966C27.9755 4.72383 27.8751 6.02801 27.8751 7.4325V12.2479C27.8751 13.0505 27.8751 13.8531 27.8751 14.6556C27.8751 14.9566 27.8751 15.1572 27.8751 15.3579C27.8751 15.5585 27.9755 15.6588 28.0758 15.7592C28.1761 15.8595 28.2764 15.9598 28.4771 15.9598C28.6777 15.9598 28.8783 16.0601 29.1793 16.0601V16.3611C28.8783 16.4614 28.5774 16.5617 28.2764 16.6621C27.8751 16.7624 27.6745 16.7624 27.5742 16.7624C26.9722 16.7624 26.571 16.4614 26.3703 15.7592C25.4674 16.4614 24.5645 16.7624 23.762 16.7624C22.6584 16.7624 21.7555 16.3611 21.1536 15.5585C20.5517 14.7559 20.1504 13.8531 20.1504 12.7495C20.1504 11.2447 20.5517 10.1412 21.4546 9.33861C22.3575 8.53604 23.5613 8.13475 25.0661 8.13475C25.4674 8.13475 25.8687 8.13475 26.3703 8.23507C26.3703 6.9309 26.3703 5.62672 26.3703 4.42287L24.9658 4.22223V3.92126ZM46.2339 16.6621L43.1239 7.23186L39.9137 16.5617L39.0108 16.6621L35.4995 5.82737C35.3992 5.5264 35.2989 5.32576 35.1986 5.22544C35.0983 5.0248 34.8976 4.92447 34.697 4.92447L33.8944 4.72383V4.32255C34.4963 4.32255 35.1986 4.32255 35.9008 4.32255C36.6031 4.32255 37.4056 4.32255 38.3085 4.32255V4.72383L37.506 4.92447C37.4056 4.92447 37.3053 5.0248 37.205 5.0248C37.1047 5.12512 37.1047 5.12512 37.1047 5.32576C37.1047 5.42608 37.1047 5.62672 37.205 5.82737C37.3053 6.02801 37.3053 6.22865 37.4056 6.52961L39.8134 14.0537L43.1239 4.32255L43.9265 4.22223L47.1368 14.154L49.6448 6.52961C49.7451 6.22865 49.8455 5.92769 49.8455 5.72704C49.9458 5.5264 49.9458 5.32576 49.9458 5.22544C49.9458 5.12512 49.9458 5.0248 49.8455 5.0248C49.7451 5.0248 49.7451 4.92447 49.5445 4.92447L48.7419 4.72383V4.32255C49.3439 4.32255 50.0461 4.32255 50.648 4.32255C51.25 4.32255 51.8519 4.32255 52.4538 4.32255V4.72383L51.5509 5.0248C51.3503 5.12512 51.25 5.12512 51.1496 5.22544C51.0493 5.32576 50.949 5.5264 50.8487 5.82737L47.1368 16.5617L46.2339 16.6621ZM58.9747 15.9598C58.4731 16.2608 57.9715 16.4614 57.4699 16.6621C56.9683 16.7624 56.4667 16.8627 55.9651 16.8627C54.6609 16.8627 53.6577 16.4614 52.8551 15.7592C52.0525 15.0569 51.6512 13.9534 51.6512 12.6492C51.6512 11.345 52.0525 10.2415 52.7548 9.43893C53.457 8.63636 54.4602 8.23507 55.7644 8.23507C56.7676 8.23507 57.5702 8.53604 58.1721 9.13796C58.7741 9.73989 59.075 10.6428 59.075 11.7463C59.075 11.947 59.075 12.0473 59.075 12.2479H53.457C53.457 13.5521 53.758 14.455 54.3599 14.9566C54.9618 15.4582 55.8647 15.7592 57.1689 15.7592C57.7708 15.7592 58.3728 15.6588 58.9747 15.5585V15.9598ZM57.2692 11.4454V11.1444C57.2692 10.3418 57.1689 9.73989 56.868 9.33861C56.567 8.93732 56.1657 8.837 55.6641 8.837C54.9618 8.837 54.4602 9.13796 54.059 9.63957C53.6577 10.1412 53.457 10.7431 53.457 11.4454H57.2692ZM64.693 9.03764C64.392 8.93732 63.9908 8.93732 63.5895 8.93732C62.9875 8.93732 62.5863 9.03764 62.2853 9.23828C61.9843 9.43893 61.7837 9.73989 61.7837 10.1412C61.7837 10.5425 61.884 10.7431 62.0847 10.9437C62.2853 11.1444 62.6866 11.345 63.2885 11.5457L63.9908 11.7463C64.7933 12.0473 65.3953 12.3482 65.7965 12.6492C66.1978 13.0505 66.3985 13.4518 66.3985 14.0537C66.3985 14.8563 66.0975 15.5585 65.4956 15.9598C64.8937 16.4614 64.0911 16.6621 63.0879 16.6621C62.185 16.6621 61.2821 16.4614 60.3792 16.1604C60.5798 15.3579 60.7805 14.6556 60.8808 13.9534L61.1818 13.8531L61.7837 15.7592C62.0847 15.8595 62.5863 15.9598 63.0879 15.9598C63.5895 15.9598 64.0911 15.8595 64.392 15.6588C64.693 15.4582 64.8937 15.1572 64.8937 14.7559C64.8937 14.3547 64.7933 14.0537 64.5927 13.8531C64.392 13.6524 63.9908 13.4518 63.5895 13.2511L62.6866 12.9502C61.884 12.6492 61.3824 12.3482 61.0814 12.0473C60.7805 11.646 60.6802 11.2447 60.6802 10.6428C60.6802 9.84021 60.9811 9.23829 61.583 8.837C62.185 8.43572 62.9875 8.13475 63.8904 8.13475C64.7933 8.13475 65.5959 8.23507 66.2981 8.53604C66.0975 9.23829 65.9972 9.94053 65.8969 10.6428L65.5959 10.7431L64.693 9.03764ZM70.1104 9.33861C70.1104 11.345 70.01 12.9502 70.01 14.154C70.01 14.7559 70.1104 15.1572 70.311 15.4582C70.5116 15.6588 70.8126 15.7592 71.3142 15.7592C71.7155 15.7592 72.2171 15.6588 72.9193 15.5585L73.0197 15.9598C72.0165 16.4614 71.1136 16.7624 70.311 16.7624C69.7091 16.7624 69.2075 16.5617 68.9065 16.2608C68.6055 15.9598 68.4049 15.3579 68.4049 14.6556C68.4049 13.5521 68.4049 11.7463 68.5052 9.23828L67.3014 8.93732L67.201 8.53604L68.6055 8.43572L69.2075 6.32897C69.5084 6.22865 69.8094 6.12833 70.1104 6.02801L70.2107 6.12833C70.2107 6.83058 70.2107 7.53283 70.2107 8.13475V8.53604H72.819V9.33861H70.1104ZM9.21539 40.9398C6.80768 40.9398 4.80126 40.1372 3.0958 38.6324C1.49066 37.1276 0.68809 35.1211 0.68809 32.6131C0.68809 30.1051 1.49066 28.0987 3.0958 26.5938C4.70094 25.089 6.80768 24.2865 9.21539 24.2865C12.1247 24.2865 14.3318 25.4903 15.8366 27.898L13.0276 29.4028C12.6263 28.8009 12.1247 28.2993 11.4225 27.898C10.7202 27.4967 10.018 27.2961 9.21539 27.2961C7.71057 27.2961 6.50672 27.7977 5.60383 28.8009C4.70094 29.8041 4.19933 31.008 4.19933 32.6131C4.19933 34.2183 4.70094 35.4221 5.60383 36.4253C6.50672 37.4285 7.71057 37.9301 9.21539 37.9301C9.91764 37.9301 10.5196 37.8298 11.1215 37.5289C11.7234 37.3282 12.225 37.0273 12.6263 36.626V34.7199H8.41282V31.7102H16.0372V37.8298C14.2315 39.9366 12.0244 40.9398 9.21539 40.9398ZM29.6809 40.6388H26.6713V39.134C25.6681 40.3378 24.2636 40.9398 22.5581 40.9398C21.3543 40.9398 20.351 40.6388 19.7491 39.9366C19.1472 39.3346 18.8462 38.4317 18.8462 37.2279V29.0016H21.8559V36.024C21.8559 37.4285 22.5581 38.1308 23.9626 38.1308C25.0661 38.1308 25.969 37.7295 26.571 36.8266V29.0016H29.5806V40.6388H29.6809ZM36.6031 40.9398C35.4995 40.9398 34.697 40.6388 34.1954 40.1372C33.5934 39.6356 33.3928 38.833 33.3928 37.7295V31.7102H31.4867V29.0016H33.3928V25.7913H36.5028V29.0016H38.9105V31.7102H36.5028V36.9269C36.5028 37.3282 36.6031 37.6292 36.8037 37.8298C37.0044 38.0305 37.205 38.2311 37.6063 38.2311C38.1079 38.2311 38.4089 38.1308 38.7098 37.9301L39.3117 40.2375C38.6095 40.6388 37.7066 40.9398 36.6031 40.9398ZM50.8487 40.6388H47.839V39.435C47.0365 40.4382 45.7323 40.9398 44.1272 40.9398C43.1239 40.9398 42.1207 40.6388 41.3182 39.9366C40.5156 39.2343 40.1143 38.3314 40.1143 37.1276C40.1143 35.9237 40.5156 34.9205 41.3182 34.3186C42.1207 33.7167 43.1239 33.4157 44.1272 33.4157C45.7323 33.4157 47.0365 33.9173 47.839 34.8202V33.215C47.839 32.6131 47.6384 32.1115 47.1368 31.8106C46.6352 31.4093 46.0333 31.3089 45.331 31.3089C44.0268 31.3089 42.9233 31.8105 41.9201 32.7134L40.7162 30.707C42.1207 29.5032 43.8262 28.9012 45.8326 28.9012C47.3374 28.9012 48.5413 29.2022 49.4442 29.9044C50.3471 30.6067 50.8487 31.7102 50.8487 33.3154V40.6388ZM45.331 38.833C46.4345 38.833 47.3374 38.5321 47.7387 37.8298V36.4253C47.2371 35.7231 46.4345 35.4221 45.331 35.4221C44.7291 35.4221 44.2275 35.6228 43.7259 35.9237C43.3246 36.2247 43.1239 36.626 43.1239 37.2279C43.1239 37.7295 43.3246 38.1308 43.7259 38.4317C44.2275 38.7327 44.7291 38.833 45.331 38.833ZM59.2757 40.9398C57.4699 40.9398 55.9651 40.3378 54.8615 39.2343C53.6577 38.1308 53.1561 36.626 53.1561 34.8202C53.1561 33.0144 53.758 31.6099 54.8615 30.4061C56.0654 29.3025 57.4699 28.7006 59.2757 28.7006C61.2821 28.7006 62.8872 29.4028 63.8904 30.8073L61.884 32.7134C61.2821 31.9109 60.4795 31.5096 59.4763 31.5096C58.5734 31.5096 57.7708 31.8105 57.1689 32.4125C56.567 33.0144 56.266 33.817 56.266 34.8202C56.266 35.8234 56.567 36.626 57.1689 37.2279C57.7708 37.8298 58.5734 38.1308 59.4763 38.1308C60.4795 38.1308 61.3824 37.7295 61.884 36.9269L63.8904 38.7327C62.8872 40.2375 61.3824 40.9398 59.2757 40.9398ZM76.8319 40.6388H73.8222V33.516C73.8222 32.7134 73.6216 32.2118 73.2203 31.9109C72.819 31.6099 72.3174 31.4093 71.6152 31.4093C70.5116 31.4093 69.6087 31.9109 69.0068 32.8138V40.6388H65.9972V24.5874H69.0068V30.5064C69.4081 30.0048 70.01 29.6035 70.7123 29.2022C71.4145 28.8009 72.2171 28.7006 73.12 28.7006C74.3238 28.7006 75.3271 29.0016 75.929 29.7038C76.5309 30.3057 76.9322 31.2086 76.9322 32.4125V40.6388H76.8319ZM83.754 40.9398C82.6505 40.9398 81.8479 40.6388 81.3463 40.1372C80.7444 39.6356 80.5438 38.833 80.5438 37.7295V31.7102H78.6377V29.0016H80.5438V25.7913H83.6537V29.0016H86.0614V31.7102H83.6537V36.9269C83.6537 37.3282 83.754 37.6292 83.9547 37.8298C84.1553 38.0305 84.356 38.2311 84.7572 38.2311C85.2589 38.2311 85.5598 38.1308 85.8608 37.9301L86.4627 40.2375C85.7605 40.6388 84.8576 40.9398 83.754 40.9398ZM93.4852 40.9398C91.6794 40.9398 90.1746 40.3378 89.0711 39.2343C87.8672 38.1308 87.2653 36.626 87.2653 34.8202C87.2653 33.1147 87.8672 31.6099 88.9707 30.5064C90.0743 29.3025 91.5791 28.7006 93.2845 28.7006C94.99 28.7006 96.3945 29.3025 97.498 30.5064C98.6016 31.7102 99.1032 33.215 99.1032 35.1211V35.8234H90.4756C90.5759 36.626 90.8768 37.2279 91.4788 37.7295C92.0807 38.2311 92.8833 38.5321 93.7861 38.5321C94.2878 38.5321 94.8897 38.4317 95.4916 38.2311C96.0935 38.0305 96.5951 37.7295 96.8961 37.4285L98.2003 39.435C97.0967 40.4382 95.4916 40.9398 93.4852 40.9398ZM96.0935 33.7167C96.0935 33.0144 95.7926 32.5128 95.291 31.9109C94.7894 31.4093 94.0871 31.1083 93.1842 31.1083C92.2813 31.1083 91.6794 31.4093 91.1778 31.9109C90.6762 32.4125 90.3752 33.0144 90.3752 33.7167H96.0935ZM104.32 40.6388H101.31V29.0016H104.32V30.6067C104.721 30.1051 105.323 29.6035 106.025 29.3025C106.728 28.9012 107.43 28.8009 108.032 28.8009V31.8106C107.831 31.8106 107.53 31.7102 107.229 31.7102C106.728 31.7102 106.126 31.8106 105.624 32.1115C105.022 32.4125 104.621 32.7134 104.42 33.0144V40.6388H104.32Z" fill="#454545"/>
<path d="M118.967 40.6388H109.437V38.3314L114.653 31.7102H109.437V29.0015H118.867V31.2086L113.55 37.9301H118.967V40.6388ZM126.993 40.9398C125.187 40.9398 123.682 40.3378 122.579 39.2343C121.375 38.1308 120.773 36.6259 120.773 34.8202C120.773 33.1147 121.375 31.6099 122.478 30.5064C123.582 29.3025 125.087 28.7006 126.792 28.7006C128.498 28.7006 129.902 29.3025 131.006 30.5064C132.109 31.7102 132.611 33.215 132.611 35.1211V35.8234H123.983C124.083 36.6259 124.384 37.2279 124.986 37.7295C125.588 38.2311 126.391 38.532 127.294 38.532C127.795 38.532 128.397 38.4317 128.999 38.2311C129.601 38.0304 130.103 37.7295 130.404 37.4285L131.708 39.4349C130.604 40.4381 128.999 40.9398 126.993 40.9398ZM129.601 33.7166C129.601 33.0144 129.3 32.5128 128.799 31.9108C128.297 31.4092 127.595 31.1083 126.692 31.1083C125.789 31.1083 125.187 31.4092 124.685 31.9108C124.184 32.4125 123.883 33.0144 123.883 33.7166H129.601ZM145.753 40.6388H142.743V33.6163C142.743 32.2118 142.041 31.4092 140.636 31.4092C139.533 31.4092 138.63 31.9108 138.028 32.8137V40.6388H135.018V29.0015H138.028V30.5064C139.031 29.3025 140.436 28.7006 142.141 28.7006C143.345 28.7006 144.348 29.0015 144.95 29.7038C145.552 30.406 145.953 31.3089 145.953 32.4125V40.6388H145.753ZM152.675 40.9398C151.571 40.9398 150.769 40.6388 150.267 40.1372C149.665 39.6356 149.465 38.833 149.465 37.7295V31.7102H147.559V29.0015H149.465V25.7913H152.575V29.0015H154.982V31.7102H152.575V36.9269C152.575 37.3282 152.675 37.6292 152.876 37.8298C153.076 38.0304 153.277 38.2311 153.678 38.2311C154.18 38.2311 154.481 38.1308 154.782 37.9301L155.384 40.2375C154.681 40.6388 153.778 40.9398 152.675 40.9398ZM159.998 40.6388H156.989V29.0015H159.998V30.6067C160.4 30.1051 161.002 29.6035 161.704 29.3025C162.406 28.9012 163.108 28.8009 163.71 28.8009V31.8105C163.51 31.8105 163.209 31.7102 162.908 31.7102C162.406 31.7102 161.804 31.8105 161.303 32.1115C160.801 32.4125 160.299 32.7134 160.099 33.0144V40.6388H159.998ZM175.648 40.6388H172.639V39.4349C171.836 40.4381 170.532 40.9398 168.927 40.9398C167.924 40.9398 166.921 40.6388 166.118 39.9365C165.315 39.2343 164.914 38.3314 164.914 37.1276C164.914 35.9237 165.315 34.9205 166.118 34.3186C166.921 33.7166 167.924 33.4157 168.927 33.4157C170.532 33.4157 171.836 33.9173 172.639 34.8202V33.215C172.639 32.6131 172.438 32.1115 171.937 31.8105C171.435 31.4092 170.833 31.3089 170.131 31.3089C168.827 31.3089 167.723 31.8105 166.72 32.7134L165.516 30.707C166.921 29.5031 168.626 28.9012 170.632 28.9012C172.137 28.9012 173.341 29.2022 174.244 29.9044C175.147 30.6067 175.648 31.7102 175.648 33.3153V40.6388ZM170.131 38.833C171.234 38.833 172.137 38.532 172.539 37.8298V36.4253C172.037 35.7231 171.234 35.4221 170.131 35.4221C169.529 35.4221 169.027 35.6227 168.526 35.9237C168.124 36.2247 167.924 36.6259 167.924 37.2279C167.924 37.7295 168.124 38.1308 168.526 38.4317C168.927 38.7327 169.429 38.833 170.131 38.833ZM181.668 40.6388H178.658V24.5874H181.668V40.6388ZM190.195 40.9398C188.389 40.9398 186.884 40.3378 185.781 39.2343C184.577 38.1308 183.975 36.6259 183.975 34.8202C183.975 33.1147 184.577 31.6099 185.681 30.5064C186.784 29.3025 188.289 28.7006 189.994 28.7006C191.7 28.7006 193.104 29.3025 194.208 30.5064C195.311 31.7102 195.813 33.215 195.813 35.1211V35.8234H187.185C187.286 36.6259 187.587 37.2279 188.189 37.7295C188.791 38.2311 189.593 38.532 190.496 38.532C190.998 38.532 191.6 38.4317 192.201 38.2311C192.803 38.0304 193.305 37.7295 193.606 37.4285L194.91 39.4349C193.807 40.4381 192.201 40.9398 190.195 40.9398ZM192.904 33.7166C192.904 33.0144 192.603 32.5128 192.101 31.9108C191.6 31.4092 190.897 31.1083 189.994 31.1083C189.092 31.1083 188.49 31.4092 187.988 31.9108C187.486 32.4125 187.185 33.0144 187.185 33.7166H192.904Z" fill="#2F5AE7"/>
<path d="M86.9643 10.3418C86.9643 8.03441 94.5887 10.7431 107.029 5.42606C119.569 0.109035 127.394 0.51032 138.529 0.51032C149.765 0.51032 156.487 4.82413 162.506 8.03441C168.525 11.2447 162.606 10.2415 181.667 12.3482C196.013 13.9534 199.625 18.2672 200.428 20.2736C200.528 20.5746 200.227 20.7752 200.026 20.5746C198.22 18.8691 192.903 14.9566 180.464 14.9566C164.412 14.9566 141.74 17.8659 86.6633 17.8659C85.3591 17.7656 86.9643 12.6492 86.9643 10.3418ZM113.75 9.23826C114.051 9.63955 114.553 9.84019 115.054 9.84019L161.704 11.4453C162.005 11.4453 162.205 11.044 161.904 10.8434C159.496 8.9373 151.471 3.11867 144.248 2.51674C135.52 1.8145 123.983 1.51353 117.161 4.2222C112.245 6.32895 112.947 8.33537 113.75 9.23826Z" fill="#1E50F2"/>
</svg>
